<?xml version="1.0" encoding="UTF-8" standalone="no"?>
<!-- Created with Inkscape (http://www.inkscape.org/) -->

<svg
        xmlns:dc="http://purl.org/dc/elements/1.1/"
        xmlns:cc="http://creativecommons.org/ns#"
        xmlns:rdf="http://www.w3.org/1999/02/22-rdf-syntax-ns#"
        xmlns="http://www.w3.org/2000/svg"
        xmlns:sodipodi="http://sodipodi.sourceforge.net/DTD/sodipodi-0.dtd"
        xmlns:inkscape="http://www.inkscape.org/namespaces/inkscape"
        width="210mm"
        height="297mm"
        viewBox="0 0 210 297"
        version="1.1"
        id="svg8"
        inkscape:version="0.92.3 (d244b95, 2018-08-02)"
        sodipodi:docname="foot-diagram.svg"
        inkscape:export-filename="/home/isabelgk/code/kermit/kermit/static/foot-diagram.svg.png"
        inkscape:export-xdpi="96"
        inkscape:export-ydpi="96">
  <defs
     id="defs2" />
  <sodipodi:namedview
     id="base"
     pagecolor="#ffffff"
     bordercolor="#666666"
     borderopacity="1.0"
     inkscape:pageopacity="0.0"
     inkscape:pageshadow="2"
     inkscape:zoom="0.7"
     inkscape:cx="296.08361"
     inkscape:cy="597.53453"
     inkscape:document-units="mm"
     inkscape:current-layer="layer1"
     showgrid="false"
     inkscape:window-width="1920"
     inkscape:window-height="1022"
     inkscape:window-x="0"
     inkscape:window-y="0"
     inkscape:window-maximized="1" />
  <metadata
     id="metadata5">
    <rdf:RDF>
      <cc:Work
         rdf:about="">
        <dc:format>image/svg+xml</dc:format>
        <dc:type
           rdf:resource="http://purl.org/dc/dcmitype/StillImage" />
        <dc:title></dc:title>
      </cc:Work>
    </rdf:RDF>
  </metadata>
  <g
     inkscape:label="Layer 1"
     inkscape:groupmode="layer"
     id="layer1">
    <path
       style="fill:#346186;fill-opacity:1;stroke-width:0.09077617"
       d="m 48.315194,261.37104 c -4.108255,-3.44934 5.179082,-2.13455 5.1e-5,6.6e-4 z m -6.313084,-0.21558 c -4.295188,-4.07682 5.847612,-1.28815 0,0 z m 12.428755,-0.32387 c -2.500798,-4.10393 6.769887,-1.5021 0,0 z m -18.501869,-0.26376 c -4.358511,-3.95001 5.840912,-1.39027 0,0 z m 38.732199,-0.0367 c -3.334601,-3.45315 5.212664,-2.36974 0,0 z m -12.642441,-0.006 c -4.022778,-3.33923 5.675292,-2.42025 -3.8e-5,2.3e-4 z m 20.924081,-0.0763 c -2.026803,-5.05883 4.460874,-0.91878 0,0 z m 16.372379,9e-4 c -2.937586,-4.11137 8.909616,-2.21012 0,0 z M 66.87477,259.95734 c -1.033539,-5.08797 5.834591,0.91456 0,0 z m 40.46045,0.3786 c -3.13431,-5.41907 4.42916,-1.37505 0,0 z m -75.517636,-0.41247 c -6.773508,-1.6199 2.639035,-3.5508 0,0 z m 59.957652,-0.0539 c -2.506393,-4.64198 8.187733,-0.43456 0,0 z m 21.666014,-0.21571 c -2.25051,-4.11905 4.12266,-0.66981 0,0 z m 7.91422,-0.21198 c -2.3114,-4.28009 9.01868,-1.36127 0.78101,-0.28344 l -0.61802,0.46901 -0.16299,-0.18543 z m -96.03586,-0.35446 c -2.188021,-4.69004 5.531322,-0.27385 0.05529,0.34859 l -0.05532,-0.34837 z m 102.24483,0.0954 c -2.00334,-4.82462 5.5599,0.16107 7e-5,-3e-5 z m -107.097405,0.0611 c -3.230817,-5.16413 5.524256,-0.9407 0,0 z m -2.833977,-0.10929 c -4.647885,-1.40689 2.144178,-4.74556 0,0 z M 143.29414,258.8644 c -4.75808,-3.23186 7.08297,-2.17179 0.5562,-0.44624 l -0.44671,0.51487 -0.10951,-0.0686 z m -8.53883,-0.55333 c -1.74596,-4.58236 7.18048,0.2562 0,0 z m 21.9455,-0.31625 c -2.24986,-3.51999 -7.13261,2.52264 -6.94497,-1.63561 2.47246,-0.51096 6.953,0.35244 10.27121,0.26341 5.02005,0.37584 5.84113,1.54876 -3.32624,1.3722 z m 16.06554,0.4286 c -1.19524,-2.92115 8.64122,-3.0743 3.74812,-0.7701 -0.82423,-0.45231 -2.56517,1.12575 -3.74812,0.7701 z m -6.89817,-0.25204 c 0.0392,-4.54176 9.42254,1.88757 5e-5,-4e-5 z m -129.408592,-8.1197 c -4.164008,-5.42891 4.673316,-0.52436 0,0 z m -13.585591,-0.29647 c -2.962529,-5.45665 5.381728,0.25378 0,0 z m 4.366873,0.2291 c -4.242259,-4.99379 5.565617,-0.37516 0,0 z m -8.731679,-0.26477 c -2.458147,-4.8371 7.593989,-0.18151 0,0 z m 13.692395,-0.0282 c -4.012291,-2.67834 4.283875,-3.17932 0,0 z m 8.061643,-0.0186 c -2.54385,-5.13688 4.209762,-1.22172 0,0 z m -25.14129,-0.21793 c -2.930094,-4.40728 5.771627,0.32382 0,0 z m 12.529423,-14.04583 c -5.131128,-0.21466 -11.424703,-1.75947 -13.279885,-7.46329 -0.858133,-3.46238 -1.07999,-6.54896 -2.595392,-9.82797 -3.7347892,-4.937 2.826581,-6.80795 3.00538,-10.99901 3.469106,-3.67458 6.890784,-5.84073 12.134457,-5.7048 9.638127,-1.40627 19.676166,0.59638 28.916009,-3.75016 13.679037,-6.01614 22.62151,-17.44408 34.285925,-25.53509 3.080083,-1.68915 6.052853,-3.94427 9.106976,-5.76621 5.302318,-5.51369 11.322838,-12.22484 10.847168,-20.91155 5.65398,-40.35193 -4.73612,-80.300057 -9.1249,-117.911973 0.63645,-3.489055 -1.5316,-12.081402 2.51349,-12.085644 -2.35901,39.68116 18.51767,84.429981 10.89445,119.573647 -2.46107,17.68452 -3.86179,27.97984 -15.778612,35.1998 -12.898374,5.49388 -19.05932,16.10616 -28.86254,23.21444 -4.834577,4.41759 -11.123941,5.52192 -16.924361,7.70255 -6.185815,1.58807 -5.823738,8.11665 -6.185815,1.58807 -6.845214,0.56362 -13.892726,-1.00289 -20.601704,0.87785 -3.264009,0.92659 -5.78135,2.56779 -9.167892,4.84834 -0.001,1.31471 16.806035,-3.4308 5.59927,0.68506 -2.603109,-0.11236 -12.826622,5.6429 -8.850455,5.27414 4.396295,-2.51557 10.44838,-5.12811 15.199733,-5.827 -2.127372,4.75976 -15.631237,2.66152 -14.786204,10.92111 1.043602,-4.55581 7.966237,-4.99187 12.461433,-6.62285 4.333672,-0.84622 9.081523,-2.99118 13.066946,-3.86169 1.024902,3.36838 -5.161143,2.63621 -7.284553,4.12487 -5.342905,-0.3799 -3.868651,4.53189 -6.766274,8.50875 -2.829892,-0.26998 -7.695608,-0.0877 -9.693102,-0.9984 0.780738,3.20857 0.232266,6.75523 2.383774,8.42329 10.308901,7.14617 21.616383,1.72303 31.513668,-0.41361 9.783239,4.13343 17.37783,2.64414 26.307387,0.55774 11.478175,-4.7018 23.765753,-8.44643 36.157411,-9.59943 -0.0125,-5.50502 1.31854,2.25792 5.10073,-0.17209 4.48076,-0.17416 9.12456,-0.9497 13.75355,-0.0404 12.72499,3.16482 23.53768,5.01119 36.00491,2.93096 5.46244,-1.17241 7.39723,-7.06101 8.87751,-12.04314 1.46575,-6.69067 8.8e-4,-14.70898 -1.66404,-21.69874 -4.94593,-11.79915 -10.08143,-23.68099 -11.69592,-36.73645 -3.03416,-24.79456 -0.42138,-50.67898 -0.0441,-60.355605 3.30124,-19.76704 4.18392,-39.248645 4.85069,-60.156062 -0.0655,-9.130906 -0.71904,-18.243802 -0.41538,-27.3560819 8.80354,38.8571059 -2.12709,75.0409919 -2.18217,111.2038189 -2.15028,13.68087 -0.4417,26.50138 1.47788,39.6739 1.37647,9.43004 4.29192,19.29339 8.60563,27.70813 2.35405,5.11226 3.21996,8.78657 4.5901,14.98747 1.51637,10.0668 0.50106,17.55144 -3.79841,23.16693 -7.97122,8.96858 -25.0358,7.00773 -32.2492,5.35175 -12.48089,-5.06186 -26.83155,-3.52507 -39.10487,-0.87795 -0.6748,-0.10754 -2.52127,0.27827 -3.596,0.72162 -0.71783,-0.0221 -3.725877,0.80608 -5.200132,1.04331 -3.278353,0.76622 -7.729635,1.66096 -10.240096,2.83496 -2.750526,0.96982 -5.451526,1.88889 -8.758485,2.31407 -7.090118,2.42887 -14.409639,3.53899 -21.723882,1.34357 -3.54654,-0.23853 -5.887104,-1.25431 -9.295238,-0.9884 -5.820364,1.74818 -11.773459,2.37768 -17.784829,2.92345 z m 71.843355,-9.44467 c -0.308539,-0.16564 -0.112739,0.45236 0,0 z m 4.007533,-0.77793 c -0.0972,-0.32481 -0.75057,0.28079 0,0 z m 0.41745,-0.0494 c -0.20489,-0.51745 -0.20493,0.51743 0,0 z m 67.7093,-4.91605 c -0.38337,-0.0917 -0.0234,0.58828 0,0 z M 24.907479,220.11169 c 5.046054,-7.21452 -7.257918,-5.29554 -7.173149,-0.71217 2.21031,0.81144 4.847202,0.70192 7.173149,0.71217 z M 171.7125,219.56426 c -0.3173,-0.1426 -0.24418,0.84983 0,0 z m 13.1793,14.8319 c -1.4798,-4.66064 3.72262,-0.66549 0,0 z m 0.0969,-6.61798 c -2.08091,-4.05553 2.88008,-1.68996 0,0 z M 49.732076,227.36329 c -3.465304,-4.28565 3.363791,-3.46459 0,0 z m 45.965146,-0.39771 c 0.340551,-0.52364 0.245101,0.29524 0,0 z m 89.242088,-4.21641 c -2.88629,-3.18729 3.69413,-2.37748 0,0 z M 48.649166,222.61689 c -2.199624,-2.11231 0.470542,-7.15109 0.889478,-2.21728 0.151987,0.77795 0.272669,2.31322 -0.889478,2.21728 z m -0.404594,-5.75416 c -3.494862,-5.39072 3.970641,-3.42912 -1.01e-4,0 z m 136.857988,-0.67364 c -2.92486,-5.81736 3.85406,-2.15083 0,0 z m -72.69917,-0.23327 c -4.64443,-3.54876 2.94053,-4.05266 0,0 z m 60.54411,-1.54356 c -2.76832,-0.22724 -3.54221,-6.40528 -1.35796,-2.969 0.24099,0.68677 4.73382,2.05158 1.35796,2.969 z m 0.22736,-0.57599 c -0.097,-0.35765 -0.20831,0.34982 0,0 z M 47.647277,211.02195 c -4.464403,-4.88291 4.26659,-3.13541 1.13e-4,1.2e-4 z m 137.400693,-0.19597 c -1.6257,-6.56444 3.2397,-1.69048 0,0 z m -74.09234,-0.76492 c -3.15637,-5.46712 3.62602,-2.28292 0,0 z m 55.10328,-0.76923 c -2.87388,-4.20613 3.65513,-2.50671 0,0 z m -2.61067,-2.55928 c -5.07599,-2.91349 4.32636,-3.97045 0,0 z m -52.89106,-0.78296 c -4.02225,-4.69082 2.49402,-3.3066 0,0 z m 74.57914,-1.9091 c -1.43434,-7.82982 3.54761,-0.39673 0,0 z m -23.69185,-0.0725 c -7.51546,-5.85109 4.45541,-0.98212 0,0 z m -6.09265,-3.60747 c -3.87134,-3.45254 5.82976,-2.21294 0,0 z m -45.97742,-0.61015 c -3.50877,-5.68972 4.68939,-2.59358 0,0 z m 43.59582,-2.10056 c -2.23711,-6.04392 4.78567,0.18266 0,0 z m 32.0185,-0.72968 c -3.08299,-3.67522 4.66243,-2.82133 0,0 z m -34.81543,-0.93586 c -3.87687,-2.93108 3.23111,-4.25813 0,0 z m -40.74342,-1.21765 c -3.61195,-4.18509 3.45702,-2.87602 0,0 z m 38.0285,-0.88748 c -3.75447,-4.3163 3.31583,-2.89358 0,0 z m -2.87893,-2.24991 c -4.94921,-3.41367 2.88978,-3.34439 0,0 z m 40.72238,-1.4498 c -2.40128,-4.55276 3.15932,-2.42796 0,0 z m -45.13479,-1.06054 c -4.13594,-5.37603 5.76449,0.46039 0,0 z m -30.92843,-0.66221 c -3.90399,-4.45403 3.33023,-3.60821 0,0 z m 28.62274,-1.16469 c -4.62569,-4.03237 3.1838,-2.91731 0,0 z m 47.04389,-3.29902 c -3.33067,-4.48907 2.39199,-3.87625 0,0 z m -49.84046,-0.32304 c -3.57038,-6.92837 4.6588,0.86694 0,0 z m -28.07941,-1.15024 c -4.80589,-3.12588 3.58475,-3.7373 0,0 z m 25.46469,-0.65751 c -3.75019,-4.19933 3.39361,-3.23546 -2e-5,-4e-5 z m -2.14744,-3.18517 c -7.02548,-2.4694 2.95346,-4.4106 0,0 z m -22.77413,-1.51815 c -4.11193,-4.65275 4.05672,-2.91584 0,0 z m 18.64558,-0.54053 c -4.13171,-3.29012 3.01416,-3.41218 0.53775,0.0571 l -0.53848,-0.0576 z m 57.82599,-0.7943 c -3.16166,-4.71773 3.30706,-3.40762 0,0 z m -59.60022,-2.3514 c -6.03408,-1.87449 0.56709,-5.5217 0,0 z m -17.37012,-2.34952 c -4.3972,-3.59321 2.4568,-5.42952 0.32929,-0.0429 l -0.3289,0.0427 z m 12.09393,-0.58741 c -3.96394,-7.30136 6.30488,1.37692 0,0 z m 64.21524,-1.14024 c -1.70398,-6.26866 3.47253,-1.79448 0,0 z m -68.57557,-1.18232 c -2.29731,-6.2709 5.25634,0.92154 0,0 z m -3.22835,-3.3039 c -6.16461,-6.34528 3.42983,-3.06129 0,0 z m 71.74221,-4.16748 c -1.87997,-4.1023 3.11966,-1.34211 0,0 z m -0.0785,-6.63069 c -1.61716,-4.48572 3.62108,-0.18419 0,0 z m -56.4169,-3.83728 c -5.2871,-0.92449 2.6537,-5.47844 0,0 z m 3.56856,-0.19912 c -2.26044,-5.96134 4.78633,0.38967 0,0 z m 27.99379,0.12047 c -3.1893,-2.77383 3.62845,-2.35428 0,0 z m -22.03463,-0.18069 c -2.81838,-5.12012 4.09278,-0.689 0,0 z m 3.98181,0.19189 c -2.68025,-5.85385 4.42609,-0.62825 0,0 z m -19.42461,-0.25868 c -1.09221,-5.69287 5.54905,1.31589 0,0 z m -3.29254,-0.12394 c -4.10027,-3.4119 3.33359,-2.71176 3.9e-4,6e-5 z m 28.36997,0.13035 c -3.78533,-4.32819 5.29856,-1.28599 0,0 z m 5.40309,-0.47814 c -0.91416,-5.76323 4.36089,1.44104 0,0 z m 32.48838,-0.75103 c -3.09936,-3.88526 3.40268,-4.19162 0,0 z m -0.21059,-6.60911 c -1.81779,-7.47922 3.33557,-2.15871 0,0 z m 0.24549,-8.18354 c -2.13994,-4.55021 3.83991,-1.98073 0,0 z m 0.33895,-6.02895 c -2.98088,-4.9409 4.3067,-2.28432 0,0 z m 0.67697,-6.64607 c -2.74332,-5.95664 3.67241,-2.27247 0,0 z m 0.60321,-6.27049 c -4.20246,-3.8582 2.6328,-3.96924 0,0 z m -0.52776,-6.51401 c -3.41489,-5.40283 3.50337,-1.99374 0,0 z m 0.0444,-6.11949 c -4.43765,-4.929304 3.56169,-2.10085 0,0 z M 183.889,97.301393 c -2.97364,-5.406899 3.80576,-1.33502 0,0 z m -38.01549,-1.960842 c -3.39059,-2.917518 3.29079,-4.856524 0,0 z m -4.52144,-0.315774 c -4.95825,-1.356444 3.1138,-4.447463 0.0483,0.218213 z m -15.68514,-0.09637 c -2.94792,-5.377423 4.89546,-1.713517 0,0 z m 10.51751,-0.03118 c -4.07028,-1.908809 2.52215,-5.194657 0,0 z m 17.06365,0.0569 c -4.04792,-2.031396 2.99128,-4.626492 0,0 z m -3.39393,-0.207971 c -3.03337,-3.660165 4.11591,-1.986029 0,0 z m 6.83447,0.01541 c -3.92162,-4.319992 3.9128,-1.704198 0,0 z m -35.28932,-0.201887 c -3.88274,-5.027357 4.13868,-2.594629 0,0 z m 38.62579,-0.392887 c -1.00007,-5.504006 4.06687,0.189611 0,0 z m -28.58391,-0.02124 c -4.45989,-1.338775 2.56904,-4.439841 0,0 z m 52.21823,-0.285004 c 0.12375,-0.260434 0.036,0.425002 0,0 z m -66.9248,-0.338721 c -3.8555,-4.007708 4.68528,-3.411685 0,0 z m 66.6999,-2.706707 c -0.22389,-0.727011 0.40111,-0.06971 0,0 z m 0.81147,-0.406802 c -3.81181,-5.298904 4.38668,-1.217634 0,0 z"
       id="path896"
       inkscape:connector-curvature="0"
       sodipodi:nodetypes="cccccccccccccccccccccccccccccccccccccccccccccccccccccccccccccccccccccccccccccccccccccccccccccccccccccccccccccccccccccccccccccccccccccccccccccccccccccccccccccccccccccccccccccccccccccccccccccccccccccccccccccccccccccccccccccccccccccccccccccccccccccccccccccccccccccccccccccccccccccccccccccccccccccccccccccccccccccccc" />
    <text
       xml:space="preserve"
       style="font-style:normal;font-weight:normal;font-size:9.64301682px;line-height:1.25;font-family:sans-serif;letter-spacing:0px;word-spacing:0px;fill:#346186;fill-opacity:1;stroke:none;stroke-width:0.24107543;"
       x="112.35155"
       y="88.506485"
       id="text901"
       transform="scale(1.0168635,0.98341615)"><tspan
         sodipodi:role="line"
         x="112.35155"
         y="88.506485"
         style="font-style:normal;font-variant:normal;font-weight:bold;font-stretch:normal;font-size:5.14294291px;font-family:'Ubuntu Condensed';-inkscape-font-specification:'Ubuntu Condensed, ';letter-spacing:0.01446453px;stroke-width:0.24107543;fill:#346186;fill-opacity:1;"
         id="tspan903">lower calf circumference</tspan></text>
    <text
       xml:space="preserve"
       style="font-style:normal;font-weight:normal;font-size:9.64301682px;line-height:1.25;font-family:sans-serif;letter-spacing:0px;word-spacing:0px;fill:#346186;fill-opacity:1;stroke:none;stroke-width:0.24107543;"
       x="115.05764"
       y="146.60466"
       id="text901-1"
       transform="scale(1.0168635,0.98341615)"><tspan
         sodipodi:role="line"
         x="115.05764"
         y="146.60466"
         style="font-style:normal;font-variant:normal;font-weight:normal;font-stretch:normal;font-size:5.14294291px;font-family:'Ubuntu Condensed';-inkscape-font-specification:'Ubuntu Condensed, ';stroke-width:0.24107543;fill:#346186;fill-opacity:1;"
         id="tspan903-4">ankle circumference</tspan></text>
    <text
       xml:space="preserve"
       style="font-style:normal;font-weight:normal;font-size:9.64301682px;line-height:1.25;font-family:sans-serif;letter-spacing:0px;word-spacing:0px;fill:#346186;fill-opacity:1;stroke:none;stroke-width:0.24107543;"
       x="136.41002"
       y="186.2099"
       id="text901-3"
       transform="scale(1.0168635,0.98341615)"><tspan
         sodipodi:role="line"
         x="136.41002"
         y="186.2099"
         style="font-style:normal;font-variant:normal;font-weight:normal;font-stretch:normal;font-size:5.14294291px;font-family:'Ubuntu Condensed';-inkscape-font-specification:'Ubuntu Condensed, ';stroke-width:0.24107543;fill:#346186;fill-opacity:1;"
         id="tspan903-7">heel diagonal</tspan></text>
    <text
       xml:space="preserve"
       style="font-style:normal;font-weight:normal;font-size:9.64301682px;line-height:1.25;font-family:sans-serif;letter-spacing:0px;word-spacing:0px;fill:#346186;fill-opacity:1;stroke:none;stroke-width:0.24107543;"
       x="111.9581"
       y="213.41699"
       id="text901-2"
       transform="scale(1.0168635,0.98341615)"><tspan
         sodipodi:role="line"
         x="111.9581"
         y="213.41699"
         style="font-style:normal;font-variant:normal;font-weight:normal;font-stretch:normal;font-size:5.14294291px;font-family:'Ubuntu Condensed';-inkscape-font-specification:'Ubuntu Condensed, ';stroke-width:0.24107543;fill:#346186;fill-opacity:1;"
         id="tspan903-73">gusset circumference</tspan></text>
    <text
       xml:space="preserve"
       style="font-style:normal;font-weight:normal;font-size:9.64301682px;line-height:1.25;font-family:sans-serif;letter-spacing:0px;word-spacing:0px;fill:#346186;fill-opacity:1;stroke:none;stroke-width:0.24107543;"
       x="49.96727"
       y="221.68243"
       id="text901-39"
       transform="scale(1.0168635,0.98341615)"><tspan
         sodipodi:role="line"
         x="49.96727"
         y="221.68243"
         style="font-style:normal;font-variant:normal;font-weight:normal;font-stretch:normal;font-size:5.14294291px;font-family:'Ubuntu Condensed';-inkscape-font-specification:'Ubuntu Condensed, ';stroke-width:0.24107543;fill:#346186;fill-opacity:1;"
         id="tspan903-2">foot circumference</tspan></text>
    <text
       xml:space="preserve"
       style="font-style:normal;font-weight:normal;font-size:9.64301682px;line-height:1.25;font-family:sans-serif;letter-spacing:0px;word-spacing:0px;fill:#346186;fill-opacity:1;stroke:none;stroke-width:0.24107543;"
       x="263.88467"
       y="198.36801"
       id="text951"
       transform="scale(1.0168635,0.98341615)"><tspan
         sodipodi:role="line"
         id="tspan949"
         x="263.88467"
         y="206.89983"
         style="stroke-width:0.24107543;fill:#346186;fill-opacity:1;" /></text>
    <text
       xml:space="preserve"
       style="font-style:normal;font-weight:normal;font-size:9.64301682px;line-height:1.25;font-family:sans-serif;letter-spacing:0px;word-spacing:0px;fill:#346186;fill-opacity:1;stroke:none;stroke-width:0.24107543;"
       x="88.883736"
       y="258.53253"
       id="text901-4"
       transform="scale(1.0168635,0.98341615)"><tspan
         sodipodi:role="line"
         x="88.883736"
         y="258.53253"
         style="font-style:normal;font-variant:normal;font-weight:normal;font-stretch:normal;font-size:5.14294291px;font-family:'Ubuntu Condensed';-inkscape-font-specification:'Ubuntu Condensed, ';stroke-width:0.24107543;fill:#346186;fill-opacity:1;"
         id="tspan903-44">foot length</tspan></text>
    <text
       xml:space="preserve"
       style="font-style:normal;font-weight:normal;font-size:9.64301682px;line-height:1.25;font-family:sans-serif;letter-spacing:0px;word-spacing:0px;fill:#346186;fill-opacity:1;stroke:none;stroke-width:0.24107543;"
       x="183.59193"
       y="135.23969"
       id="text901-9"
       transform="scale(1.0168635,0.98341615)"><tspan
         sodipodi:role="line"
         x="183.59193"
         y="135.23969"
         style="font-style:normal;font-variant:normal;font-weight:normal;font-stretch:normal;font-size:5.14294291px;font-family:'Ubuntu Condensed';-inkscape-font-specification:'Ubuntu Condensed, ';stroke-width:0.24107543;fill:#346186;fill-opacity:1;"
         id="tspan903-9">leg length</tspan></text>
    <text
       xml:space="preserve"
       style="font-style:normal;font-weight:normal;font-size:10.58333302px;line-height:1.25;font-family:sans-serif;letter-spacing:0px;word-spacing:0px;fill:#346186;fill-opacity:1;stroke:none;stroke-width:0.26458332;"
       x="17.711027"
       y="242.8349"
       id="text901-38"><tspan
         sodipodi:role="line"
         x="17.711027"
         y="242.8349"
         style="font-style:normal;font-variant:normal;font-weight:normal;font-stretch:normal;font-size:5.64444447px;font-family:'Ubuntu Condensed';-inkscape-font-specification:'Ubuntu Condensed, ';stroke-width:0.26458332;fill:#346186;fill-opacity:1;"
         id="tspan903-3">toe length</tspan></text>
  </g>
</svg>
