<?xml version="1.0" encoding="UTF-8" standalone="no"?>
<!-- Created with Inkscape (http://www.inkscape.org/) -->

<svg
   xmlns:dc="http://purl.org/dc/elements/1.1/"
   xmlns:cc="http://creativecommons.org/ns#"
   xmlns:rdf="http://www.w3.org/1999/02/22-rdf-syntax-ns#"
   xmlns:svg="http://www.w3.org/2000/svg"
   xmlns="http://www.w3.org/2000/svg"
   xmlns:sodipodi="http://sodipodi.sourceforge.net/DTD/sodipodi-0.dtd"
   xmlns:inkscape="http://www.inkscape.org/namespaces/inkscape"
   width="210mm"
   height="297mm"
   viewBox="0 0 210 297"
   version="1.1"
   id="svg1002"
   inkscape:version="0.92.3 (d244b95, 2018-08-02)"
   sodipodi:docname="hand-diagram.svg"
   inkscape:export-filename="/home/isabelgk/code/kermit/kermit/static/hand-diagram.png"
   inkscape:export-xdpi="96"
   inkscape:export-ydpi="96">
  <defs
     id="defs996" />
  <sodipodi:namedview
     id="base"
     pagecolor="#ffffff"
     bordercolor="#666666"
     borderopacity="1.0"
     inkscape:pageopacity="0.0"
     inkscape:pageshadow="2"
     inkscape:zoom="0.7"
     inkscape:cx="293.56028"
     inkscape:cy="595.69345"
     inkscape:document-units="mm"
     inkscape:current-layer="layer1"
     showgrid="false"
     inkscape:window-width="1920"
     inkscape:window-height="1022"
     inkscape:window-x="0"
     inkscape:window-y="0"
     inkscape:window-maximized="1" />
  <metadata
     id="metadata999">
    <rdf:RDF>
      <cc:Work
         rdf:about="">
        <dc:format>image/svg+xml</dc:format>
        <dc:type
           rdf:resource="http://purl.org/dc/dcmitype/StillImage" />
        <dc:title />
      </cc:Work>
    </rdf:RDF>
  </metadata>
  <g
     inkscape:label="Layer 1"
     inkscape:groupmode="layer"
     id="layer1">
    <path
       style="fill:#346186;stroke-width:0.07450165;fill-opacity:1"
       d="m 157.84973,281.4287 c -1.89269,-2.43989 0.0816,-9.79441 -2.99865,-9.683 2.84023,-3.21136 -0.86285,-11.8501 0.27855,-17.06083 -1.08865,-10.52714 2.46248,-20.63549 7.05269,-29.83791 2.32277,-6.26583 3.52157,-9.08596 3.82344,-19.23935 -0.62058,-11.78438 -1.82622,-22.79538 1.24586,-35.22994 2.42251,-9.28316 4.86802,-18.58044 9.21323,-26.96125 4.08297,-11.00253 10.98922,-21.05039 12.55833,-32.92951 0.9617,-5.71616 4.32337,-13.235077 -0.60207,-17.832972 -4.82979,-3.566711 -9.60032,2.165666 -10.65286,6.63208 -5.96875,10.940522 -6.48636,24.336572 -14.96259,33.907932 -1.81814,2.31381 -6.78876,4.93737 -8.77836,0.96531 -0.25279,-28.21987 16.13629,-63.777323 6.91705,-87.620722 -3.17064,-4.773511 -9.48815,0.358136 -10.65398,4.42029 -8.11172,17.275712 -7.5893,36.844002 -9.27008,55.442842 -1.16196,5.41377 -0.56793,12.76623 -5.81415,16.08223 -5.0718,2.35459 -4.61313,-5.18316 -5.1524,-8.08533 -0.40637,-18.111876 0.47094,-36.185028 0.25403,-54.289622 -1.33692,-8.829668 -1.06754,-19.814781 -8.91831,-25.706545 -9.31996,-6.395734 -12.55979,8.779766 -11.44336,17.452005 0.30536,15.20557 -1.2215,30.644888 -0.91131,45.84637 -0.26558,14.830792 -0.29123,16.702152 -1.00595,25.107322 -0.81297,4.54008 -3.4597,3.17868 -5.28298,-2.02384 -5.001614,-16.71977 -8.784216,-33.860239 -10.434695,-51.255072 -0.938916,-6.720133 -2.808596,-14.397663 -8.519291,-18.71829 -3.138817,-1.933339 -7.909544,0.818592 -7.909202,4.553734 -3.210904,17.765536 3.713959,34.508067 5.823776,51.831878 1.872909,12.51585 2.676503,25.15943 3.090536,37.75722 -0.35384,3.21021 0.352088,18.38933 -4.479674,23.29896 -3.740422,-0.72176 -7.621804,-1.43464 -10.133794,-4.71575 -1.781579,1.09375 -1.089062,-3.23332 -3.417593,-4.54518 -7.531242,-12.35169 -16.03453,-25.99191 -30.662685,-30.55228 -4.727525,-2.0655 -12.458513,-1.77958 -13.994033,0.15812 -1.709126,-0.16493 -2.747633,3.01592 -2.92262,4.33512 7.057659,8.85935 15.819023,16.38152 21.576791,26.22346 4.542724,6.38625 8.015131,13.35947 11.802595,20.13262 2.603388,-1.33589 -0.0053,3.33938 2.573189,5.00674 3.819164,7.33188 7.253927,14.74164 9.042512,22.89613 2.609623,7.72235 5.79778,15.39575 11.260653,21.49227 4.020866,4.65986 8.12655,9.28509 11.358343,14.67502 4.664179,-1.36725 -0.996008,1.00453 1.640863,3.3161 3.011017,7.26983 2.733787,15.83543 2.897787,23.33269 1.496566,0.27079 -3.608763,11.24845 -2.028885,4.45736 1.687045,-9.38061 1.239947,-19.67646 -2.513511,-28.52005 C 80.818643,234.75933 69.913112,226.97883 65.71844,214.67458 62.259556,206.25838 60.9092,197.06674 56.263731,189.14115 51.176775,178.84446 45.758226,168.67382 39.38248,159.16033 33.689444,149.81371 25.461676,142.44039 18.708232,133.9844 c -2.082005,-3.76174 2.542924,-7.74919 6.252376,-8.33624 4.436009,-0.40013 4.53149,-0.2818 6.71969,0.15948 14.067673,2.8754 24.578152,13.73524 31.590113,25.61842 4.067813,5.90783 7.446727,14.27485 15.524295,15.08764 5.160025,-2.58123 3.251673,-10.1544 4.499631,-14.83035 0.851315,-15.26975 -0.834744,-30.58843 -2.870605,-45.70259 -2.527251,-17.500345 -9.751924,-34.61475 -5.485977,-53.220382 3.256151,-5.81998 10.564373,-4.549684 12.696736,0.033 8.249967,12.194939 5.758598,27.704308 9.448399,41.34854 2.636813,9.862392 3.99392,19.238302 7.82665,28.679052 3.3012,3.44886 1.95567,-9.89556 2.5742,-20.96988 0.62443,-14.691537 1.01427,-28.609143 1.19273,-44.376742 0.43418,-7.850767 -1.61213,-18.168023 4.63,-24.094773 4.94238,-4.642745 11.80594,1.301813 13.80542,6.146395 4.76033,11.119786 4.47343,23.716681 4.2332,35.603729 -0.0573,13.702833 -0.90515,27.498331 0.004,41.182831 -1.2564,7.45264 6.88812,5.61484 6.999,-0.28062 3.34453,-16.348744 1.89416,-33.358391 5.81545,-49.637558 1.50976,-7.31842 3.49938,-15.403674 8.69634,-20.95194 10.26391,-6.24184 11.30057,5.91385 12.09137,13.714696 0.1586,21.70078 -6.59307,43.645582 -9.07175,62.767632 -0.368,4.40034 -2.47562,9.40064 1.02419,12.93762 6.70343,-1.36078 9.23734,-8.37004 11.81892,-13.98549 3.12946,-9.56995 5.77419,-19.60133 11.29271,-28.120942 2.35356,-3.287816 7.34566,-3.264586 10.06674,-0.11025 3.60494,8.338442 -0.2904,16.382372 -0.85437,22.114472 -2.31918,11.12383 -8.8043,20.68186 -12.84483,31.1991 -6.72406,15.32721 -10.90998,32.37355 -10.0111,47.97147 0.49983,10.14153 1.37203,21.05394 -2.5408,29.42815 -4.79363,10.09926 -9.03448,20.90185 -7.85948,32.29704 -0.16922,8.63465 1.4217,17.21128 2.31692,25.69412 l -0.44346,0.0808 z m 15.3264,-173.47504 c -0.0642,-0.39354 -0.17695,0.39092 0,0 z m -44.1133,167.31869 c -0.31559,-2.54378 3.67354,0.59647 0,0 z m 5.81116,-0.22731 c -1.25816,-2.57653 3.40831,0.24165 0,0 z m -22.0339,-0.23738 c -1.04624,-2.75843 3.60088,-0.18135 0,0 z m -4.24659,-0.007 c -2.15339,-2.2407 3.75232,-0.71708 0,0 z m 30.52706,-0.0503 c -0.70743,-2.12043 3.39172,-0.11078 -7e-5,2.5e-4 z m 4.30068,-0.0419 c -0.35892,-2.614 2.0688,0.59462 0,0 z m -19.51765,0.0513 c -2.55147,-1.71998 4.32378,-1.12197 0,0 z m -5.96014,-0.23518 c -0.81633,-2.45053 3.44164,0.20329 0,0 z m -12.92604,-0.0589 c -3.3968,-1.60798 3.50064,-1.35952 0,0 z m 41.68369,-0.0356 c -1.50826,-2.47305 2.95044,-0.27643 0,0 z m 3.91115,-0.19404 c -3.03019,-1.15516 2.98072,-1.79024 0,0 z m -50.942128,-0.52366 c -4.433582,-0.94922 1.976198,-1.89241 0,0 z m -4.561429,-0.69976 c -3.822081,-1.35817 1.885264,-2.12033 0,0 z m 57.843477,-0.3538 c 0.62356,-3.2397 2.19292,1.10837 0,0 z M 137.72365,245.9921 c -1.92424,-2.60986 3.45149,-0.96416 0,0 z m -11.24975,-0.93327 c -2.53694,-2.18305 3.05827,-1.97984 0,0 z m 18.89679,-0.23892 c 0.15329,-3.08741 2.5491,1.17327 0,0 z m 4.36775,0.15304 c -1.31484,-2.37185 2.62828,0.1163 0,0 z m 2.88903,0.11696 c -1.37721,-2.62387 3.68356,-0.59293 0,0 z m -10.97385,-0.37995 c -0.50244,-2.96818 2.52878,1.20143 0,0 z m -7.78544,0.12845 c -3.19294,-2.79484 3.12707,-0.84633 0,0 z m -12.83912,-0.15648 c -2.50471,-3.16724 3.49116,-0.18089 0,0 z m 9.49921,-0.0528 c -4.29554,-1.29351 2.23093,-2.47637 0,0 z m -19.62922,-0.0722 c -2.84804,-2.88585 3.06796,-0.94538 0,0 z m 2.77918,-0.0557 c -1.64338,-3.32106 3.86539,0.41277 0,0 z m -10.35033,-0.38779 c -0.67905,-3.50057 3.0267,0.84379 0,0 z m 14.05679,0.1719 c -2.45323,-2.49536 3.46437,-0.84619 0,0 z m -10.09171,-0.15877 c -3.80511,-2.31563 3.45655,-1.06387 0,0 z m -16.170129,-0.28174 c -1.119196,-3.11722 3.46728,0.89185 -6.5e-5,-6e-5 z m 8.344186,-0.19378 c -1.308322,-3.70293 3.475173,0.49302 0,0 z m -3.910966,-0.0543 c -3.291709,-2.95873 4.410462,-0.76409 0,0 z m 26.780369,-1.39425 c -1.81776,-2.97168 2.67976,-1.08326 0,0 z m -35.191904,-2.2296 c -2.129448,-2.78307 3.351249,-0.89504 0,0 z m 35.660154,-2.57173 c -2.67093,-5.96679 2.92527,0.50645 0,0 z m -36.072863,-2.22549 c -2.375257,-2.30666 2.43929,-2.81488 0,0 z m 35.383713,-2.24041 c -2.61563,-2.63933 1.89763,-2.43889 0,0 z m -35.686298,-1.56954 c -2.146417,-2.92266 2.500856,-1.997 0,0 z m 35.540438,-2.97422 c -1.23604,-4.72532 2.87417,-3.86907 0,0 z m -36.322711,-2.07073 c -2.459935,-3.64734 2.257605,-1.2093 0,0 z m 36.421601,-2.64119 c -1.38767,-3.89736 2.55803,-0.99545 0,0 z M 85.330345,221.7018 c -0.819041,-3.67387 0.0014,0.0826 0,0 z m 36.449415,-3.84242 c -1.5942,-3.16662 2.49005,-1.75521 0,0 z m -36.869119,-1.75674 c -1.665785,-2.96298 2.322373,-0.87873 0,0 z m 36.930399,-3.30262 c -1.78527,-3.16673 2.68152,-1.1488 0,0 z m -37.013589,-0.39623 c -2.763754,-2.26433 2.261286,-2.4932 0,0 z m 37.491949,-5.58912 c -1.50836,-3.99788 2.70041,-0.80109 0,0 z m -38.184232,-0.42762 c -2.113955,-3.43652 2.507126,-3.74708 0,0 z m 38.150722,-5.91727 c -2.03211,-3.21244 2.27662,-1.29806 0,0 z m -38.778941,-0.48856 c -1.484114,-4.04697 3.032028,-2.13186 0,0 z m 38.405781,-3.94795 c -1.88513,-3.72122 2.16229,-3.87929 0,0 z m -38.53806,-2.09658 c -1.3905,-3.38274 2.733186,-0.88433 0,0 z m 38.21937,-2.63387 c -1.65431,-4.73244 2.68243,-2.07262 0,0 z m -38.342525,-1.14889 c -2.590255,-2.69111 2.128613,-3.84046 0,0 z m -0.904583,-5.0776 c -2.502265,-3.51693 3.299729,-0.96505 0,0 z m 39.404478,-0.24692 c -1.59628,-4.6555 2.69878,-1.42532 0,0 z m -39.991132,-4.86339 c -2.523881,-1.88192 3.050599,-1.60667 0,0 z m 40.232512,-0.008 c -2.03076,-3.65517 2.20701,-3.32322 0,0 z m -67.055604,-0.79517 c -1.743502,-2.52949 4.403602,-0.97016 0,0 z m 2.516053,-1.71527 c -2.40758,-1.7753 3.664861,-1.81969 0,0 z m 24.12223,-0.87275 c -2.57954,-1.6093 2.137368,-2.02256 0,0 z m -21.370811,-1.68435 c -1.507257,-2.4636 3.669296,-1.07026 0,0 z m 61.668882,-0.80431 c -1.91625,-3.33961 2.41015,-2.36138 0,0 z m -40.707705,-0.56483 c -3.11279,-3.49011 3.015286,-1.3071 0,0 z m -21.158067,-1.22545 c -1.723963,-3.23231 2.515118,-0.19773 0,0 z m 2.57186,0.0103 c -1.784454,-1.81856 3.564238,-1.85478 0,0 z m 18.045158,-1.47346 c -3.679844,-2.73826 3.583249,-1.35549 0,0 z m 41.155654,-1.18235 c -1.78926,-4.17604 2.23641,-2.52331 0.39458,0.10234 l -0.39409,-0.10242 z m -64.127471,-0.1637 c -1.899019,-2.79217 2.524094,-0.45633 0,0 z m 7.655057,-0.52175 c -2.189938,-1.73203 3.233489,-2.13874 0,0 z m -9.239404,-1.37399 c -3.040392,-1.66165 2.972034,-2.10159 0,0 z m 11.00881,-1.15155 c -1.082987,-2.31165 2.735137,-0.41452 0,0 z m -13.685338,-2.07876 c -2.337639,-3.51138 2.82291,-0.0878 0,0 z m 68.571976,-1.12018 c -2.69665,-3.72728 2.9143,-0.54903 0,0 z m -70.494742,-1.29284 c -3.211195,-3.34088 2.469229,-1.23627 0,0 z m 16.483492,-0.79977 c 0.06453,-0.39354 0.176807,0.39091 0,0 z m 53.7695,-1.88812 c -1.8418,-3.51222 3.43553,0.64458 0,0 z m -72.783415,-0.6512 c -3.600195,-3.45692 2.025117,-1.34921 0,0 z m -3.231813,-3.83828 c -4.167382,-4.38612 2.646109,-0.58658 0,0 z m 75.942818,0.0967 c -2.02044,-3.20186 2.95019,-2.10981 0,0 z m 40.52466,-1.28123 c -0.82947,-3.21838 2.59837,0.57963 0,0 z m -4.24233,0.0234 c -1.30135,-2.40133 3.12955,-0.57179 0,0 z m -3.01733,-0.34799 c -1.43793,-2.64243 2.98557,-0.24997 0,0 z m 15.0866,0.004 c -1.42592,-2.5925 3.07221,-0.30458 0,0 z m -5.10881,-0.0785 c -1.51402,-1.80932 2.87069,-0.64742 0,0 z m 2.72474,-0.17608 c -1.26746,-2.47266 2.67825,0.10886 0,0 z m -16.93697,-0.27326 c -1.31884,-2.85673 2.90588,-0.34924 0,0 z m -4.12837,0.0718 c -2.20085,-1.68001 3.36079,-0.97441 0,0 z m -5.06611,-0.93725 c -4.5694,-1.81205 1.59468,-2.0123 5e-5,1.3e-4 z m -98.736026,-0.41857 c -3.957686,-3.19099 2.001374,-2.05268 -9.6e-5,-4e-5 z m 64.734086,-0.29492 c -2.65,-2.27439 4.05406,-1.15194 0,0 z m 28.05949,-0.0859 c -3.19064,-2.42035 4.52049,-0.0743 8e-5,0.001 z m -4.69267,-0.0869 c -0.49933,-2.88804 4.90662,0.54541 1e-5,-5.6e-4 z m -5.01023,-0.0172 c -2.18508,-2.51972 5.36136,0.1183 0,0 z m -14.34846,-0.0762 c -3.42345,-0.93469 2.68096,-1.88275 0,0 z m 4.29073,0.04 c -3.42164,-2.08873 4.44167,-0.89835 0,0 z m 4.48124,-0.0222 c -3.03324,-1.59775 4.24726,-1.25327 0,-4.4e-4 z M 103.207,150.03195 c -4.496217,-1.97654 3.70604,-1.1254 0,0 z m -4.687645,-0.65034 c -1.668896,-2.80936 4.336025,0.008 0,0 z m -3.994261,-0.31597 c -1.586482,-3.31196 4.589952,0.25367 0,0 z M 40.15546,148.24148 c -3.902151,-2.93042 2.073513,-2.16798 0,0 z m 50.761237,-0.58381 c -0.155744,-2.98681 2.860429,1.12028 0,0 z m 30.527223,0.0427 c -0.13004,-2.63865 0.95083,-0.60058 0,0 z m -33.943239,-0.21596 c -1.383034,-2.34066 3.4259,-0.20474 0,0 z m -50.093534,-2.4446 c -3.743764,-1.79057 1.343635,-2.45506 0,0 z m 83.825573,-0.92805 c -0.0493,-2.83597 2.73988,1.00264 0,0 z m -86.470387,-1.92503 c -2.540298,-2.04452 1.964174,-1.25387 0,0 z m 86.264177,-1.47758 c -0.96788,-4.0822 2.33835,-0.44333 0,0 z m -88.361223,-0.98046 c -3.413494,-2.81966 2.991772,-0.84856 0,0 z m -2.186805,-2.22237 c -4.171213,-4.00917 2.34798,-1.11341 0,0 z m 90.612668,-1.35564 c -1.95903,-3.0902 2.76119,-1.48345 0,0 z m -93.093457,-1.23632 c -1.719063,-1.93871 2.524072,-0.18741 0,0 z m -2.217785,-1.37186 c -0.869646,-3.07911 3.310571,0.19768 0,0 z m 95.050942,-1.50767 c -1.80028,-2.93676 2.88256,-0.28321 0,0 z m -95.79946,-0.38571 c -3.697411,-1.45741 2.236599,-1.80259 0,0 z m 95.60547,-3.19385 c -0.91752,-4.33125 2.62638,-1.22419 0,0 z m 0.11079,-4.58283 c -1.4782,-3.91626 2.95736,-1.00089 0,0 z m 0.23756,-5.72507 c -1.80767,-3.04083 2.08681,-1.83476 0,0 z m -0.65979,-4.64726 c -1.67108,-2.84851 2.76247,-1.31497 0,0 z m 0.40449,-6.41514 c -1.93287,-3.07798 3.05815,-1.34282 0,0 z m -0.42571,-5.18868 c -1.86416,-3.099122 2.97656,-0.48603 0,0 z m -0.20204,-5.048242 c -0.93153,-4.404596 2.46694,0.383798 0,0 z m -0.14209,-5.01688 c -1.70813,-4.930893 2.46962,0.464501 0,0 z m 0.0129,-4.26071 c -2.1953,-3.674507 1.76212,-2.908487 0,0 z m -0.58937,-4.48173 c -1.79909,-4.071306 2.54695,-2.838713 0,0 z m 0.19885,-6.33912 c -2.03523,-3.203014 2.38639,-1.655371 0,0 z m -0.0372,-3.9235 c -2.52796,-1.75256 2.18341,-2.299628 0,0 z m -0.2402,-4.68369 c -3.16118,-1.721533 2.67264,-1.863298 0,0 z m -0.69107,-3.54077 c -1.81793,-3.201148 2.75661,-0.971929 0,0 z m -0.22692,-3.40211 c -0.65717,-2.918813 2.81085,0.992045 0,0 z m -0.0686,-2.71242 c -1.07639,-2.379159 2.68335,0.488442 0,0 z m 0.25511,-2.88665 c -1.63946,-2.385253 2.95147,-1.414162 0,0 z m -0.71217,-3.84395 c -1.09707,-2.429419 2.74264,0.765676 0,0 z m 0.38002,-2.10043 c -3.0599,-1.315263 1.63028,-1.909998 0,0 z m -0.51482,-3.498452 c -1.4541,-2.978619 2.37935,0.645487 0,0 z m 0.012,-3.105408 c -1.8255,-4.839349 2.4346,-1.028132 0,0 z m -0.1753,-3.926386 c -2.06155,-3.621063 2.48537,-1.100463 0,0 z"
       id="path1066"
       inkscape:connector-curvature="0"
       sodipodi:nodetypes="cccccccccccccccccccccccccccccccccccccccccccccccccccccccccccccccccccccccccccccccccccccccccccccccccccccccccccccccccccccccccccccccccccccccccccccccccccccccccccccccccccccccccccccccccccccccccccccccccccccccccccccccccccccccccccccccccccccccccccccccccccccccccccccccccccccccccccccccccccccccccccccccccccccccccccccccccccccccccccccccccccccccccccccccccccccccccccccccccccccccccccc" />
    <text
       xml:space="preserve"
       style="font-style:normal;font-variant:normal;font-weight:normal;font-stretch:normal;font-size:4.93888889px;line-height:1.25;font-family:'Ubuntu Condensed';-inkscape-font-specification:'Ubuntu Condensed, ';letter-spacing:0px;word-spacing:0px;fill:#346186;fill-opacity:1;stroke:none;stroke-width:0.26458332;"
       x="180.29465"
       y="211.95534"
       id="text1074"><tspan
         sodipodi:role="line"
         id="tspan1072"
         x="180.29465"
         y="221.31911"
         style="stroke-width:0.26458332;-inkscape-font-specification:'Ubuntu Condensed, ';font-family:'Ubuntu Condensed';font-weight:normal;font-style:normal;font-stretch:normal;font-variant:normal;font-size:4.93888889px;fill:#346186;fill-opacity:1;" /></text>
    <text
       xml:space="preserve"
       style="font-style:normal;font-variant:normal;font-weight:normal;font-stretch:normal;font-size:10.58333302px;line-height:1.25;font-family:ubuntu-condensed;-inkscape-font-specification:ubuntu-condensed;letter-spacing:0px;word-spacing:0px;fill:#346186;fill-opacity:1;stroke:none;stroke-width:0.26458332;"
       x="183.53668"
       y="-70.553711"
       id="text1078"
       transform="rotate(84.901775)"><tspan
         sodipodi:role="line"
         id="tspan1076"
         x="183.53668"
         y="-70.553711"
         style="font-size:5.64444444px;stroke-width:0.26458332;-inkscape-font-specification:'Ubuntu Condensed, ';font-family:'Ubuntu Condensed';font-weight:normal;font-style:normal;font-stretch:normal;font-variant:normal;fill:#346186;fill-opacity:1;">thumb gusset length</tspan></text>
    <text
       xml:space="preserve"
       style="font-style:normal;font-variant:normal;font-weight:normal;font-stretch:normal;font-size:10.58333302px;line-height:1.25;font-family:ubuntu-condensed;-inkscape-font-specification:ubuntu-condensed;letter-spacing:0px;word-spacing:0px;fill:#346186;fill-opacity:1;stroke:none;stroke-width:0.26458332;"
       x="102.80952"
       y="270.16367"
       id="text1082"><tspan
         sodipodi:role="line"
         id="tspan1080"
         x="102.80952"
         y="270.16367"
         style="font-style:normal;font-variant:normal;font-weight:normal;font-stretch:normal;font-size:5.64444447px;font-family:'Ubuntu Condensed';-inkscape-font-specification:'Ubuntu Condensed, ';stroke-width:0.26458332;fill:#346186;fill-opacity:1;">wrist circumference</tspan></text>
    <text
       xml:space="preserve"
       style="font-style:normal;font-variant:normal;font-weight:normal;font-stretch:normal;font-size:10.58333302px;line-height:1.25;font-family:ubuntu-condensed;-inkscape-font-specification:ubuntu-condensed;letter-spacing:0px;word-spacing:0px;fill:#346186;fill-opacity:1;stroke:none;stroke-width:0.26458332;"
       x="110.17006"
       y="250.39442"
       id="text1082-5"><tspan
         sodipodi:role="line"
         id="tspan1080-2"
         x="110.17006"
         y="250.39442"
         style="font-style:normal;font-variant:normal;font-weight:normal;font-stretch:normal;font-size:5.64444447px;font-family:'Ubuntu Condensed';-inkscape-font-specification:'Ubuntu Condensed, ';stroke-width:0.26458332;fill:#346186;fill-opacity:1;">base of palm</tspan></text>
    <text
       xml:space="preserve"
       style="font-style:normal;font-variant:normal;font-weight:normal;font-stretch:normal;font-size:10.58333302px;line-height:1.25;font-family:ubuntu-condensed;-inkscape-font-specification:ubuntu-condensed;letter-spacing:0px;word-spacing:0px;fill:#346186;fill-opacity:1;stroke:none;stroke-width:0.26458332;"
       x="6.6045942"
       y="184.62656"
       id="text1082-6"><tspan
         sodipodi:role="line"
         id="tspan1080-9"
         x="6.6045942"
         y="184.62656"
         style="font-style:normal;font-variant:normal;font-weight:normal;font-stretch:normal;font-size:5.64444447px;font-family:'Ubuntu Condensed';-inkscape-font-specification:'Ubuntu Condensed, ';stroke-width:0.26458332;fill:#346186;fill-opacity:1;">thumb circumference</tspan></text>
    <text
       xml:space="preserve"
       style="font-style:normal;font-variant:normal;font-weight:normal;font-stretch:normal;font-size:10.58333302px;line-height:1.25;font-family:ubuntu-condensed;-inkscape-font-specification:ubuntu-condensed;letter-spacing:0px;word-spacing:0px;fill:#346186;fill-opacity:1;stroke:none;stroke-width:0.26458332;"
       x="170.27892"
       y="-125.73449"
       id="text1082-1"
       transform="rotate(90)"><tspan
         sodipodi:role="line"
         id="tspan1080-3"
         x="170.27892"
         y="-125.73449"
         style="font-style:normal;font-variant:normal;font-weight:normal;font-stretch:normal;font-size:5.64444447px;font-family:'Ubuntu Condensed';-inkscape-font-specification:'Ubuntu Condensed, ';stroke-width:0.26458332;fill:#346186;fill-opacity:1;">hand length</tspan></text>
    <text
       xml:space="preserve"
       style="font-style:normal;font-variant:normal;font-weight:normal;font-stretch:normal;font-size:10.58333302px;line-height:1.25;font-family:ubuntu-condensed;-inkscape-font-specification:ubuntu-condensed;letter-spacing:0px;word-spacing:0px;fill:#346186;fill-opacity:1;stroke:none;stroke-width:0.26458332;"
       x="122.2653"
       y="146.45097"
       id="text1082-3"><tspan
         sodipodi:role="line"
         id="tspan1080-1"
         x="122.2653"
         y="146.45097"
         style="font-style:normal;font-variant:normal;font-weight:normal;font-stretch:normal;font-size:5.64444447px;font-family:'Ubuntu Condensed';-inkscape-font-specification:'Ubuntu Condensed, ';stroke-width:0.26458332;fill:#346186;fill-opacity:1;">palm/hand circumference</tspan></text>
    <text
       xml:space="preserve"
       style="font-style:normal;font-variant:normal;font-weight:normal;font-stretch:normal;font-size:10.58333302px;line-height:1.25;font-family:ubuntu-condensed;-inkscape-font-specification:ubuntu-condensed;letter-spacing:0px;word-spacing:0px;fill:#346186;fill-opacity:1;stroke:none;stroke-width:0.26458332;"
       x="21.653267"
       y="124.15038"
       id="text1082-6-5"><tspan
         sodipodi:role="line"
         id="tspan1080-9-2"
         x="21.653267"
         y="124.15038"
         style="font-style:normal;font-variant:normal;font-weight:normal;font-stretch:normal;font-size:5.64444447px;font-family:'Ubuntu Condensed';-inkscape-font-specification:'Ubuntu Condensed, ';stroke-width:0.26458332;fill:#346186;fill-opacity:1;">thumb length</tspan></text>
  </g>
</svg>
