<?xml version="1.0" encoding="UTF-8" standalone="no"?>
<!-- Created with Inkscape (http://www.inkscape.org/) -->

<svg
        xmlns:dc="http://purl.org/dc/elements/1.1/"
        xmlns:cc="http://creativecommons.org/ns#"
        xmlns:rdf="http://www.w3.org/1999/02/22-rdf-syntax-ns#"
        xmlns="http://www.w3.org/2000/svg"
        xmlns:sodipodi="http://sodipodi.sourceforge.net/DTD/sodipodi-0.dtd"
        xmlns:inkscape="http://www.inkscape.org/namespaces/inkscape"
        width="210mm"
        height="297mm"
        viewBox="0 0 210 297"
        version="1.1"
        id="svg933"
        inkscape:version="0.92.3 (d244b95, 2018-08-02)"
        sodipodi:docname="band-heel.svg"
        inkscape:export-filename="/home/isabelgk/code/kermit/kermit/static/heel-construction/band-heel.png"
        inkscape:export-xdpi="96"
        inkscape:export-ydpi="96">
  <defs
     id="defs927" />
  <sodipodi:namedview
     id="base"
     pagecolor="#ffffff"
     bordercolor="#666666"
     borderopacity="1.0"
     inkscape:pageopacity="0.0"
     inkscape:pageshadow="2"
     inkscape:zoom="0.98994949"
     inkscape:cx="349.11983"
     inkscape:cy="688.56793"
     inkscape:document-units="mm"
     inkscape:current-layer="layer1"
     showgrid="false"
     inkscape:window-width="1920"
     inkscape:window-height="1022"
     inkscape:window-x="0"
     inkscape:window-y="0"
     inkscape:window-maximized="1" />
  <metadata
     id="metadata930">
    <rdf:RDF>
      <cc:Work
         rdf:about="">
        <dc:format>image/svg+xml</dc:format>
        <dc:type
           rdf:resource="http://purl.org/dc/dcmitype/StillImage" />
        <dc:title></dc:title>
      </cc:Work>
    </rdf:RDF>
  </metadata>
  <g
     inkscape:label="Layer 1"
     inkscape:groupmode="layer"
     id="layer1">
    <path
       style="fill:#000000;stroke-width:0.09243912"
       d="m 194.54297,223.88406 c -5.13742,0.96116 -11.33847,-0.0826 -16.8702,0.38234 -12.35193,-0.32182 -24.67881,-0.21661 -37.02352,-0.77829 -10.18117,0.34596 -20.34022,0.38335 -30.50996,0.0708 -7.38871,0.5176 -12.778048,1.01068 -26.934906,2.24923 -3.786538,0.016 -6.022124,0.20491 -12.583036,-0.95515 -6.419982,-1.20952 -13.107418,-3.16639 -18.97872,-6.42291 -4.953772,-1.49118 -8.925257,-4.31862 -13.332667,-7.06754 -2.027479,-0.72643 -4.31039,-3.88598 -6.488966,-5.35048 -1.319945,-1.2487 -1.338659,-1.24379 -2.740828,-2.94601 -0.03469,-1.32362 -1.196069,-2.37625 -1.961806,-3.77631 -1.665819,-1.87638 -0.289479,-3.7924 -1.694884,-5.44032 -2.401051,-8.74808 -3.878102,-17.96115 -3.652502,-27.22347 0.843108,-10.36341 3.204442,-20.7507 5.745334,-30.89896 3.02481,-14.14225 2.404962,-28.79601 0.595878,-43.065666 C 27.642829,78.567929 26.51784,64.417358 24.311534,50.509696 23.140171,44.264935 21.1402,37.149184 19.398227,31.841381 c 2.345784,-2.017662 4.896002,-0.330407 7.914891,-0.8305 6.82219,-0.449645 13.507239,-2.065258 20.660155,-1.702113 7.871092,-0.859331 16.026909,0.08821 23.839357,0.349591 4.237628,1.321776 9.010979,0.157201 13.408553,0.574935 10.480895,0.717045 21.132147,2.224774 31.558417,1.27147 4.09956,-0.113953 8.55221,0.74125 12.81238,0.593703 2.50387,0.640075 9.9664,-0.758396 6.87983,3.624928 -0.0493,24.879602 -1.72837,50.766772 7.77693,74.340915 2.46713,6.83134 6.03738,13.40335 10.46188,19.16307 7.2491,8.33861 16.2861,14.81189 25.68128,20.52009 3.56687,2.36395 8.05901,2.89111 11.2212,5.74472 0.57655,3.69448 -1.12472,7.38739 -0.59283,11.59383 -1.27143,14.35957 -0.14594,28.8318 1.0203,43.16322 0.88852,4.54492 2.15263,9.00898 2.5024,13.63482 z m -3.04454,-2.86562 c -1.91473,-9.01669 -3.05651,-18.15045 -2.99812,-27.40104 -1.12219,-10.90385 -0.0818,-21.96249 0.29905,-32.82304 2.46924,-4.26969 -1.84144,-4.7006 -4.62605,-6.19315 -11.1407,-5.67477 -21.35518,-13.14655 -29.94587,-22.17804 -4.56867,-5.25657 -7.35624,-11.68392 -10.80893,-17.65906 -5.59206,-14.35541 -8.80593,-29.614094 -9.24027,-45.094319 -0.66891,-11.714714 0.91587,-23.748821 -0.518,-35.26783 -3.31296,0.0884 -7.5934,-0.046 -10.35935,-0.6051 -6.23058,-0.316349 -13.85821,0.05554 -20.37089,-0.132828 -7.429103,-1.139202 -14.841806,-0.89032 -22.362282,-1.681174 -6.569232,0.97861 -12.993413,-1.694668 -19.555071,-0.783692 -4.155948,-0.767306 -7.612173,0.696118 -11.687455,-0.101227 -2.819422,0.586604 -6.46887,0.331054 -9.863346,0.688963 -5.375161,0.990988 -11.276569,0.359197 -16.560514,1.812656 1.144341,7.527055 3.826791,14.807692 4.541204,22.412231 1.754258,12.590761 2.609267,25.278972 3.104835,37.982774 2.090781,16.568356 2.299593,33.721086 -2.733764,49.761836 -1.152727,5.72571 -2.318696,11.39518 -3.185042,17.1319 -1.550052,6.53067 -0.05997,13.46377 0.370613,20.0824 0.743549,2.10575 0.558416,7.18602 2.183325,7.64927 2.238658,-10.19016 3.510473,-21.61539 5.694067,-32.21102 4.322851,-5.42884 0.925046,6.177 0.999005,8.50043 -1.862859,10.30975 -3.865296,20.61281 -4.720463,31.06674 2.435166,8.66831 10.545601,13.74846 18.006002,17.78094 6.860543,2.7786 13.427498,6.3514 20.826326,7.62403 4.376595,1.38134 8.887352,1.44533 13.392506,1.86081 2.132929,-8.26408 -0.500923,-17.25819 -0.373291,-25.79435 0.521581,-7.30161 -0.793237,-14.77733 1.229486,-21.8988 -3.48214,-1.62735 -6.330238,-3.4214 -9.552945,-5.29266 -2.77279,-0.84034 -6.16603,-3.19469 -8.602882,-3.23678 -1.631201,-2.14125 -4.839589,-2.22396 -7.247335,-3.91368 -6.492592,-2.43952 -17.603306,-4.15622 -23.956409,-6.69668 -2.368799,-4.57597 10.456116,-0.85902 12.208741,0.23398 7.740605,2.36904 15.397685,4.72452 22.625724,8.35271 4.563089,2.50604 9.507206,3.86191 13.605013,7.13824 7.843203,2.40168 -0.502355,11.50885 2.428801,17.47921 -0.212538,11.00631 0.33762,22.03281 1.162586,33.00179 12.521378,0.48415 25.130455,-1.9301 37.724665,-0.82535 10.24734,-0.74606 20.52997,-0.0181 30.78853,-0.16451 8.34555,1.07634 16.75601,-0.20689 25.1726,0.55885 3.94126,-0.81859 10.52897,1.0939 12.90652,-1.16594 z M 60.684277,165.13899 c -0.329289,-0.228 0.337967,-0.11189 0,0 z m 127.908353,5.72164 c 0.0687,0.4775 0.32409,-0.22469 0,0 z M 41.919212,31.333374 c -0.337971,0.111807 0.329295,0.227973 0,0 z M 28.389143,200.73824 c -0.694719,-0.0977 0.440543,0.42838 0,0 z m -1.130572,-11.49708 c -0.966677,0.0855 0.437564,0.70947 0,0 z M 38.498962,29.715686 c -0.331644,-0.236186 0.331644,-0.236186 0,0 z M 25.673032,195.00863 c -0.42996,0.28001 0.560222,-0.51006 0,0 z m -0.02309,-0.38156 c -0.331617,-0.23607 0.331617,-0.23607 0,0 z"
       id="path1029"
       inkscape:connector-curvature="0"
       sodipodi:nodetypes="cccccccccccccccccccccccccccccccccccccccccccccccccccccccccccccccccccccccccccccccccccccccccc" />
    <text
       xml:space="preserve"
       style="font-style:normal;font-variant:normal;font-weight:normal;font-stretch:normal;font-size:10.58333302px;line-height:1.25;font-family:'Ubuntu Condensed';-inkscape-font-specification:'Ubuntu Condensed, ';letter-spacing:0px;word-spacing:0px;fill:#000000;fill-opacity:1;stroke:none;stroke-width:0.26458332"
       x="81.784477"
       y="242.47702"
       id="text1034"><tspan
         sodipodi:role="line"
         id="tspan1032"
         x="81.784477"
         y="242.47702"
         style="stroke-width:0.26458332">Band Heel</tspan></text>
  </g>
</svg>
