<?xml version="1.0" encoding="UTF-8" standalone="no"?>
<!-- Created with Inkscape (http://www.inkscape.org/) -->

<svg
   xmlns:dc="http://purl.org/dc/elements/1.1/"
   xmlns:cc="http://creativecommons.org/ns#"
   xmlns:rdf="http://www.w3.org/1999/02/22-rdf-syntax-ns#"
   xmlns:svg="http://www.w3.org/2000/svg"
   xmlns="http://www.w3.org/2000/svg"
   xmlns:sodipodi="http://sodipodi.sourceforge.net/DTD/sodipodi-0.dtd"
   xmlns:inkscape="http://www.inkscape.org/namespaces/inkscape"
   width="210mm"
   height="297mm"
   viewBox="0 0 210 297"
   version="1.1"
   id="svg1157"
   inkscape:version="0.92.3 (d244b95, 2018-08-02)"
   sodipodi:docname="square-heel.svg"
   inkscape:export-filename="/home/isabelgk/code/kermit/kermit/static/heel-construction/square-heel.png"
   inkscape:export-xdpi="96"
   inkscape:export-ydpi="96">
  <defs
     id="defs1151" />
  <sodipodi:namedview
     id="base"
     pagecolor="#ffffff"
     bordercolor="#666666"
     borderopacity="1.0"
     inkscape:pageopacity="0.0"
     inkscape:pageshadow="2"
     inkscape:zoom="0.7"
     inkscape:cx="643.83015"
     inkscape:cy="659.52474"
     inkscape:document-units="mm"
     inkscape:current-layer="layer1"
     showgrid="false"
     inkscape:window-width="1920"
     inkscape:window-height="1022"
     inkscape:window-x="0"
     inkscape:window-y="0"
     inkscape:window-maximized="1" />
  <metadata
     id="metadata1154">
    <rdf:RDF>
      <cc:Work
         rdf:about="">
        <dc:format>image/svg+xml</dc:format>
        <dc:type
           rdf:resource="http://purl.org/dc/dcmitype/StillImage" />
        <dc:title />
      </cc:Work>
    </rdf:RDF>
  </metadata>
  <g
     inkscape:label="Layer 1"
     inkscape:groupmode="layer"
     id="layer1">
    <path
       style="fill:#000000;stroke-width:0.0705742"
       d="m 178.60245,149.45914 c -2.11216,2.87524 -1.14911,7.70117 -1.71897,11.37651 0.13685,6.78308 -0.91061,13.39461 -0.45132,20.15975 -0.12832,5.84434 0.55493,11.75495 0.17674,17.56219 -4.94204,-0.36535 -10.68489,-0.75627 -15.99166,-0.43316 -9.75224,0.32409 -19.43378,-0.91616 -29.18244,-0.76343 -11.49549,-0.47532 -22.97988,-2.38719 -34.463136,-0.64374 -4.527885,-0.84013 -8.996933,0.83223 -13.3124,0.40322 -5.82852,0.28652 -11.056366,-2.64688 -16.564612,-3.99541 -3.381099,-1.33685 -7.407889,-2.33038 -10.768341,-4.38465 -8.253539,-3.99398 -15.497147,-11.50577 -16.877786,-20.91277 -1.470123,-7.97465 -0.01296,-16.25738 1.127857,-24.13054 1.285001,-7.71641 2.242625,-15.55888 3.783606,-23.23286 0.694793,-6.29933 2.299829,-12.38045 2.425058,-18.74984 0.44638,-8.783988 1.362716,-17.607896 0.319051,-26.343401 -0.212594,-9.474025 -1.711275,-18.854831 -4.517217,-27.864486 1.789862,-3.343152 -3.652606,-5.489463 0.312568,-6.042485 7.625423,-1.397099 15.921863,-0.130085 23.571772,-0.348645 6.273016,-0.06629 12.549733,0.10796 18.808922,-0.103765 12.132902,-0.188138 24.395898,0.947483 36.544318,1.411063 5.1075,0.240833 10.38159,-0.09753 15.2889,1.550767 -1.03279,1.48998 -2.95951,4.00963 -3.02456,6.711524 -2.76657,12.308611 -2.45892,25.335006 0.80866,37.454507 1.39398,5.02638 2.38627,10.266958 4.46523,15.023861 2.55889,8.19328 6.74551,16.02999 12.92677,21.95611 2.81463,2.24816 4.8105,5.43844 7.7118,7.59462 4.38123,4.12263 8.78529,7.97584 13.36964,11.85361 1.28218,2.36742 5.66238,2.12565 5.23234,4.89274 z m -2.67148,-0.58412 c -3.83808,-3.20073 -8.0844,-5.97051 -11.35221,-9.7119 -4.85493,-3.21825 -8.60023,-7.78999 -12.67925,-11.77052 -2.80882,-2.78326 -5.67608,-5.88267 -7.76536,-9.3946 -3.14546,-5.40957 -5.56313,-11.18995 -7.47033,-17.1376 -1.22026,-3.672123 -2.14091,-7.612524 -3.22878,-11.481281 -2.77051,-10.312808 -3.8532,-21.866731 -2.0553,-32.864091 0.33753,-3.9791 1.92062,-7.911118 2.10932,-11.77601 -7.62528,-0.932157 -15.3971,-0.284502 -23.02915,-1.182825 -7.44818,-1.453273 -15.232409,-0.342832 -22.781625,-0.808789 -3.839472,0.306532 -7.787173,-0.175219 -11.641147,0.261154 -4.316155,-1.323532 -8.932611,0.30372 -13.223072,-0.264823 -2.732895,0.681737 -5.648023,-0.901816 -8.438647,-0.342564 -3.551958,0.480794 -7.305179,-0.401316 -10.770738,0.549864 0.289355,4.83188 2.802425,9.513191 3.422849,14.405222 2.138458,14.035321 3.084155,28.3579 1.345403,42.54106 -0.661468,16.661253 -4.315189,32.842093 -6.779938,49.257993 -0.707418,8.70294 -2.105368,18.00182 2.241035,26.03953 1.216499,3.43318 3.257119,1.28711 6.180668,2.26948 6.736735,0.64291 13.248383,2.97462 20.052636,3.65899 6.108416,0.91627 12.365822,2.14222 18.351948,2.96569 2.271839,0.4206 1.688211,-4.04629 2.362559,-5.72053 1.54094,-6.79604 2.474179,-13.7596 3.751301,-20.63821 0.763987,-5.51652 1.627277,-11.01284 2.608445,-16.50775 1.780836,-1.53952 2.021786,1.52846 2.706566,2.49807 3.928497,6.1682 6.660657,12.91971 10.378627,19.18756 2.46198,5.89614 5.48785,11.277 8.19646,17.05432 0.82387,1.83904 2.17705,3.59455 1.7971,5.74217 -2.31323,1.49817 -1.97368,-2.71777 -3.10132,-3.94467 -1.73394,-3.96466 -3.84131,-7.79498 -5.66405,-11.72724 -3.22761,-6.31408 -6.37089,-12.88005 -9.76769,-19.14981 -0.88695,-1.54625 -2.167877,-5.43668 -3.511657,-5.19749 -1.249929,7.50405 -2.161052,15.13076 -3.799235,22.63014 -1.118018,5.63177 -1.401126,11.44057 -2.938107,16.91771 0.688216,3.86493 -3.550157,0.22316 -5.375569,0.49829 -8.865866,-1.84273 -17.918406,-2.86399 -26.737738,-4.67488 -3.567549,-0.55026 -6.760942,-1.0773 -10.118753,-1.86286 -5.383967,-1.30358 1.356559,3.23319 2.65997,4.48278 6.568007,5.09165 14.793372,6.65748 22.386118,9.57244 8.665253,3.41852 18.010901,1.17704 27.046621,1.57482 13.55788,-1.23017 27.10739,1.05333 40.65073,1.22322 10.84584,0.57269 21.75641,0.48666 32.60523,0.37559 0.55662,-3.49258 0.0707,-7.03799 0.016,-10.51596 0.18742,-6.70437 -0.003,-13.34674 0.43952,-19.95495 -0.15363,-5.70946 0.78504,-11.50627 0.92054,-17.07674 z m -1.19977,42.20171 c -0.25134,0.1744 0.25809,0.0851 0,0 z M 135.10796,95.095817 c -0.24261,0.16471 0.13475,0.20337 0,0 z m 41.31702,82.148373 c -0.19957,0.14299 0.0968,-0.30763 0,0 z"
       id="path1221"
       inkscape:connector-curvature="0"
       sodipodi:nodetypes="ccccccccccccccccccccccccccccccccccccccccccccccccccccccccccccccccccccccccccccccccc" />
    <text
       xml:space="preserve"
       style="font-style:normal;font-variant:normal;font-weight:normal;font-stretch:normal;font-size:10.58333302px;line-height:1.25;font-family:'Ubuntu Condensed';-inkscape-font-specification:'Ubuntu Condensed, ';letter-spacing:0px;word-spacing:0px;fill:#000000;fill-opacity:1;stroke:none;stroke-width:0.26458332"
       x="81.64286"
       y="213.08926"
       id="text1226"><tspan
         sodipodi:role="line"
         id="tspan1224"
         x="81.64286"
         y="213.08926"
         style="stroke-width:0.26458332">Square Heel</tspan></text>
  </g>
</svg>
